<svg width="222" height="51" viewBox="0 0 222 51" fill="none" xmlns="http://www.w3.org/2000/svg">
<path d="M49.8397 10L36.3745 10.159L19 40.9987H23.235C23.2234 40.9935 23.2105 40.9884 23.1988 40.9832C23.1988 40.9832 26.6931 40.3575 27.4106 39.7719C27.4106 39.7719 30.3503 38.103 31.8512 35.3908L23.2661 36.1509L24.1361 34.6022C24.1361 34.6022 35.0003 31.4764 36.9808 25.5866C36.9808 25.5866 39.181 19.6646 42.6029 17.9206C42.6029 17.9206 46.3751 16.518 45.6098 18.2593L42.1789 26.1502C42.1789 26.1502 40.7698 28.0764 44.8096 29.13C44.8096 29.13 47.6537 29.7686 48.3142 29.642L47.8902 31.0304C47.8902 31.0304 40.5462 33.9028 39.1991 33.8472C39.1991 33.8472 40.5979 30.7847 40.3949 29.6394C40.3949 29.6394 38.1959 34.3256 36.4184 35.851C36.4184 35.851 33.9053 39.5767 29.5178 41H49.841V10H49.8397Z" fill="#FDC20F"/>
<path d="M36.4174 35.851C38.1962 34.3255 40.3938 29.6393 40.3938 29.6393C40.5968 30.7847 39.198 33.8472 39.198 33.8472C40.5438 33.9028 47.8892 31.0303 47.8892 31.0303L48.3132 29.6419C47.6526 29.7686 44.8086 29.13 44.8086 29.13C40.7687 28.0751 42.1778 26.1502 42.1778 26.1502L45.6088 18.2593C46.3754 16.5193 42.6018 17.9206 42.6018 17.9206C39.1812 19.6645 36.9797 25.5866 36.9797 25.5866C35.0005 31.4763 24.135 34.6022 24.135 34.6022L23.265 36.1509L31.8501 35.3907C30.3505 38.1029 27.4095 39.7719 27.4095 39.7719C26.692 40.3588 23.1978 40.9832 23.1978 40.9832C23.2094 40.9883 23.2223 40.9935 23.234 40.9987H29.5154C33.903 39.5754 36.4161 35.8497 36.4161 35.8497L36.4174 35.851Z" fill="white"/>
<path d="M49.8008 10V40.9987L54.4702 38.3305V11.6715L49.8008 10Z" fill="#D61F37"/>
<path d="M57.5664 36.7779L62.2345 34.1691V14.5518L57.5664 12.9746V36.7779Z" fill="#D61F37"/>
<path d="M80.2293 16.0088H84.3574L90.5386 33.4668H86.5824L85.4298 29.8779H78.9995L77.8163 33.4683H74L80.2293 16.0073V16.0088ZM79.9918 26.8718H84.4637L82.2562 20.0014L79.9918 26.8718Z" fill="#D61F37"/>
<path d="M100.208 25.1873C100.146 24.705 99.9824 24.2707 99.7216 23.8846C99.3412 23.3629 98.7511 23.1021 97.9526 23.1036C96.8131 23.1036 96.0321 23.6689 95.6139 24.7982C95.3924 25.3971 95.2816 26.1927 95.2816 27.185C95.2816 28.1307 95.3924 28.8913 95.6139 29.4655C96.0175 30.5394 96.7781 31.0756 97.8943 31.0756C98.6855 31.0756 99.248 30.8629 99.5802 30.4359C99.9124 30.009 100.115 29.4567 100.185 28.7777H103.633C103.554 29.8035 103.182 30.7754 102.519 31.692C101.46 33.1695 99.8906 33.9068 97.8127 33.9083C95.7334 33.9083 94.2034 33.2934 93.2242 32.0606C92.2435 30.8293 91.7539 29.2323 91.7524 27.2695C91.7524 25.0547 92.293 23.3309 93.3757 22.0996C94.4584 20.8669 95.9519 20.2519 97.8579 20.2505C99.4782 20.2505 100.804 20.6133 101.836 21.339C102.868 22.0661 103.478 23.3484 103.669 25.1887H100.21L100.208 25.1873Z" fill="#D61F37"/>
<path d="M116.747 31.8857C115.657 33.2306 114.003 33.9038 111.784 33.9038C109.565 33.9038 107.911 33.2321 106.821 31.8871C105.731 30.5422 105.186 28.9233 105.186 27.029C105.186 25.1668 105.731 23.5537 106.819 22.1884C107.909 20.8231 109.563 20.1396 111.783 20.1396C114.002 20.1396 115.656 20.8216 116.747 22.1869C117.837 23.5523 118.382 25.1653 118.382 27.0276C118.382 28.9218 117.838 30.5407 116.748 31.8871L116.747 31.8857ZM114.045 30.0191C114.574 29.3167 114.838 28.32 114.838 27.0261C114.838 25.7322 114.573 24.7369 114.044 24.039C113.515 23.341 112.756 22.9927 111.769 22.9927C110.781 22.9927 110.022 23.3424 109.489 24.0404C108.956 24.7384 108.689 25.7336 108.69 27.0276C108.69 28.3215 108.957 29.3182 109.49 30.0205C110.024 30.7229 110.783 31.0726 111.771 31.0726C112.757 31.0726 113.517 30.7214 114.045 30.0191Z" fill="#D61F37"/>
<path d="M127.968 20.249C128.012 20.2534 128.108 20.2592 128.258 20.2665V23.7257C128.045 23.7024 127.856 23.6864 127.69 23.6791C127.524 23.6718 127.39 23.6674 127.288 23.6674C125.93 23.6674 125.018 24.1104 124.551 24.9949C124.29 25.4918 124.161 26.2582 124.161 27.2928V33.4638H120.763L120.76 20.5521H123.982V22.8019C124.502 21.9407 124.956 21.352 125.344 21.0358C125.976 20.5069 126.797 20.2417 127.808 20.2417C127.871 20.2417 127.925 20.2432 127.968 20.2475V20.249Z" fill="#D61F37"/>
<path d="M143.421 19.0921H134.181V22.8019H142.663V25.8328H134.181V30.3237H143.847V33.4609L130.616 33.4639L130.613 16.0029L143.418 16V19.0921H143.421Z" fill="#FDC20F"/>
<path d="M149.867 33.4595H146.491L146.488 16H149.864L149.867 33.4595Z" fill="#FDC20F"/>
<path d="M161.571 20.8069C162.472 21.2105 163.216 21.8473 163.802 22.7172C164.331 23.4836 164.673 24.374 164.831 25.3867C164.921 25.9797 164.959 26.8336 164.943 27.9498H155.539C155.591 29.2466 156.041 30.1544 156.889 30.6761C157.405 30.9996 158.026 31.1613 158.75 31.1613C159.52 31.1613 160.145 30.9646 160.624 30.5683C160.886 30.3555 161.118 30.0583 161.319 29.6794H164.765C164.675 30.4444 164.257 31.2225 163.514 32.0123C162.357 33.2684 160.738 33.8964 158.655 33.8964C156.938 33.8964 155.421 33.3674 154.108 32.3081C152.793 31.2488 152.136 29.5264 152.136 27.1396C152.136 24.9029 152.728 23.1878 153.914 21.9944C155.099 20.801 156.639 20.2036 158.53 20.2036C159.654 20.2036 160.666 20.4047 161.567 20.8083L161.571 20.8069ZM156.522 23.7241C156.046 24.2151 155.746 24.8825 155.623 25.7233H161.44C161.379 24.8257 161.079 24.1466 160.541 23.6818C160.002 23.2184 159.335 22.9868 158.539 22.9868C157.672 22.9868 157 23.233 156.524 23.7255L156.522 23.7241Z" fill="#FDC20F"/>
<path d="M174.604 20.5435H178.229L173.569 33.4552H170.01L165.377 20.5449H169.167L171.859 30.0673L174.606 20.5435H174.604Z" fill="#FDC20F"/>
<path d="M188.556 20.803C189.457 21.2066 190.201 21.8434 190.787 22.7133C191.316 23.4797 191.658 24.3701 191.816 25.3828C191.906 25.9758 191.944 26.8297 191.928 27.9459H182.524C182.576 29.2427 183.026 30.1505 183.874 30.6722C184.39 30.9957 185.011 31.1574 185.735 31.1574C186.504 31.1574 187.13 30.9593 187.609 30.5644C187.871 30.3516 188.103 30.0544 188.304 29.6755H191.75C191.66 30.4405 191.242 31.2186 190.498 32.0084C189.342 33.2645 187.723 33.8925 185.64 33.8925C183.922 33.8925 182.405 33.3635 181.093 32.3042C179.778 31.2449 179.121 29.5225 179.121 27.1357C179.121 24.899 179.713 23.1839 180.899 21.9905C182.083 20.7971 183.624 20.1997 185.515 20.1997C186.638 20.1997 187.651 20.4008 188.552 20.8044L188.556 20.803ZM183.506 23.7202C183.029 24.2127 182.729 24.8786 182.607 25.7194H188.423C188.362 24.8218 188.062 24.1427 187.524 23.6779C186.985 23.2145 186.318 22.9814 185.522 22.9829C184.655 22.9829 183.984 23.2291 183.507 23.7216L183.506 23.7202Z" fill="#FDC20F"/>
<path d="M204.046 21.2776C204.891 21.9771 205.313 23.1355 205.315 24.7544V33.4492H201.857V25.5952C201.856 24.9161 201.765 24.3945 201.585 24.0316C201.255 23.3686 200.627 23.0364 199.703 23.0364C198.567 23.0364 197.787 23.5231 197.363 24.4936C197.145 25.0065 197.034 25.6622 197.034 26.4592V33.4477H193.659L193.656 20.5593H196.926V22.4419C197.359 21.7789 197.767 21.301 198.153 21.0081C198.845 20.4864 199.722 20.2256 200.783 20.2256C202.112 20.2256 203.199 20.5738 204.044 21.2733L204.046 21.2776Z" fill="#FDC20F"/>
</svg>
