<svg xmlns="http://www.w3.org/2000/svg" version="1.1" xmlns:xlink="http://www.w3.org/1999/xlink" width="512" height="512" x="0" y="0" viewBox="0 0 24 24" style="enable-background:new 0 0 512 512" xml:space="preserve" fill-rule="evenodd" class=""><g><path d="M13.929 7.286a2.782 2.782 0 0 1 2.785 2.785.75.75 0 0 0 1.5 0 4.278 4.278 0 0 0-4.285-4.285.75.75 0 0 0 0 1.5z" fill="#fdc20f" opacity="1" data-original="#000000"></path><path d="M13.932 3.75a6.268 6.268 0 0 1 4.47 1.848 6.268 6.268 0 0 1 1.848 4.47.75.75 0 0 0 1.5.007 7.755 7.755 0 0 0-2.288-5.537 7.755 7.755 0 0 0-5.537-2.288.75.75 0 0 0 .007 1.5zM12.929 16.583a16.863 16.863 0 0 1-5.513-5.511l1.795-2.156a1.749 1.749 0 0 0 .308-1.69c-.484-1.414-.756-2.831-.782-4.249A1.749 1.749 0 0 0 6.988 1.25H3.057a1.75 1.75 0 0 0-1.748 1.654L1.25 4c0 10.348 8.402 18.75 18.75 18.75l1.096-.059a1.75 1.75 0 0 0 1.654-1.748c0-1.066 0-2.793-.006-3.899a1.744 1.744 0 0 0-1.772-1.74c-1.387.011-2.774-.254-4.16-.786a1.75 1.75 0 0 0-1.75.287zm-.624 1.377.002.002a1.25 1.25 0 0 0 1.443-.112l2.271-1.891a.251.251 0 0 1 .251-.041l.003.001c1.569.602 3.139.897 4.709.885h.011a.246.246 0 0 1 .176.069.248.248 0 0 1 .073.175v.004c.006 1.104.006 2.827.006 3.891a.25.25 0 0 1-.236.25l-1.034.057c-9.5-.011-17.212-7.718-17.23-17.217l.057-1.047a.25.25 0 0 1 .25-.236h3.93a.25.25 0 0 1 .25.248v.007c.029 1.57.327 3.139.863 4.709l.001.003a.246.246 0 0 1-.044.24l-.001.001c-.523.631-1.474 1.772-1.907 2.291a1.25 1.25 0 0 0-.112 1.444l.002.003a18.358 18.358 0 0 0 6.266 6.264z" fill="#fdc20f" opacity="1" data-original="#000000"></path></g></svg>