<svg width="44" height="31" viewBox="0 0 44 31" fill="none" xmlns="http://www.w3.org/2000/svg">
<path d="M30.8397 0L17.3745 0.159008L0 30.9987H4.23503C4.22339 30.9935 4.21047 30.9884 4.19883 30.9832C4.19883 30.9832 7.69312 30.3575 8.41059 29.7719C8.41059 29.7719 11.3503 28.103 12.8512 25.3908L4.26605 26.1509L5.13607 24.6022C5.13607 24.6022 16.0003 21.4764 17.9808 15.5866C17.9808 15.5866 20.181 9.66455 23.6029 7.92064C23.6029 7.92064 27.3751 6.51801 26.6098 8.25934L23.1789 16.1502C23.1789 16.1502 21.7698 18.0764 25.8096 19.13C25.8096 19.13 28.6537 19.7686 29.3142 19.642L28.8902 21.0304C28.8902 21.0304 21.5462 23.9028 20.1991 23.8472C20.1991 23.8472 21.5979 20.7847 21.3949 19.6394C21.3949 19.6394 19.1959 24.3256 17.4184 25.851C17.4184 25.851 14.9053 29.5767 10.5178 31H30.841V0H30.8397Z" fill="#FDC20F"/>
<path d="M17.4171 25.851C19.1959 24.3255 21.3936 19.6393 21.3936 19.6393C21.5965 20.7847 20.1978 23.8472 20.1978 23.8472C21.5435 23.9028 28.8889 21.0303 28.8889 21.0303L29.3129 19.6419C28.6523 19.7686 25.8083 19.13 25.8083 19.13C21.7685 18.0751 23.1776 16.1502 23.1776 16.1502L26.6085 8.25931C27.3751 6.51928 23.6016 7.92061 23.6016 7.92061C20.181 9.66452 17.9795 15.5866 17.9795 15.5866C16.0003 21.4763 5.13475 24.6022 5.13475 24.6022L4.26473 26.1509L12.8498 25.3907C11.3503 28.1029 8.40927 29.7719 8.40927 29.7719C7.6918 30.3588 4.19751 30.9832 4.19751 30.9832C4.20914 30.9883 4.22207 30.9935 4.23371 30.9987H10.5152C14.9027 29.5754 17.4158 25.8497 17.4158 25.8497L17.4171 25.851Z" fill="white"/>
<path d="M30.801 0V30.9987L35.4704 28.3305V1.67152L30.801 0Z" fill="#D61F37"/>
<path d="M38.5664 26.7779L43.2345 24.1691V4.55176L38.5664 2.97461V26.7779Z" fill="#D61F37"/>
</svg>
